<?xml version="1.0" encoding="utf-8"?>
<svg xmlns="http://www.w3.org/2000/svg" viewBox="0 0 500 500" xmlns:bx="https://boxy-svg.com">
  <defs>
    <bx:export>
      <bx:file format="png"/>
    </bx:export>
  </defs>
  <path d="M 97.691 141.344 L 500 141.344 L 500 259.247 L 97.691 259.247 L 97.691 141.344 Z" fill="none" style=""/>
  <path d="M 205.714 379.092 L 205.714 172.47 C 205.714 168.738 205.426 166.027 204.834 164.347 C 204.253 162.667 203.958 161.13 203.958 159.734 C 203.958 157.758 204.987 156.146 207.03 154.906 C 209.082 153.586 211.532 152.93 214.385 152.93 C 220.973 152.93 226.287 154.652 230.305 158.088 C 234.334 161.46 236.344 165.586 236.344 170.494 L 236.344 299.605 C 240.888 299.089 246.004 297.816 251.713 295.764 C 257.421 293.707 263.319 290.854 269.388 287.199 C 275.395 283.467 281.29 278.932 287.065 273.587 C 292.774 268.171 297.869 261.837 302.324 254.593 C 306.869 247.424 310.525 239.3 313.304 230.219 C 316.093 221.139 317.476 211.082 317.476 200.028 C 317.476 192.561 316.267 184.843 313.854 176.863 C 311.515 168.882 307.748 161.601 302.545 155.016 C 297.428 148.504 290.764 143.125 282.563 138.877 C 274.439 134.628 264.559 132.509 252.919 132.509 C 237.111 132.509 223.574 134.925 212.299 139.754 C 200.958 144.662 191.704 151.25 184.523 159.518 C 177.431 167.718 172.193 177.269 168.824 188.169 C 165.465 199.006 163.773 210.489 163.773 222.645 C 163.773 231.35 164.543 238.705 166.078 244.712 C 167.551 250.716 169.154 255.579 170.91 259.314 C 172.743 263.122 174.423 265.933 175.959 267.765 C 177.495 269.601 178.417 270.62 178.705 270.841 C 180.901 270.181 182.437 270.435 183.316 271.61 C 184.193 272.783 184.634 274.319 184.634 276.219 C 184.634 278.055 184.05 280.755 182.877 284.344 C 181.638 287.935 179.988 291.295 177.935 294.444 C 175.895 297.596 173.513 299.965 170.801 301.582 C 168.101 303.194 165.31 302.898 162.457 300.701 C 160.92 299.309 158.547 296.75 155.319 293.018 C 152.103 289.285 148.92 284.309 145.768 278.085 C 142.629 271.861 139.84 264.329 137.424 255.468 C 134.944 246.687 133.692 236.512 133.692 224.948 C 133.692 206.427 136.59 189.675 142.366 174.667 C 148.151 159.658 156.309 146.815 166.849 136.131 C 177.321 125.448 189.792 117.214 204.284 111.429 C 218.853 105.644 234.961 102.755 252.593 102.755 C 267.018 102.755 280.114 105.137 291.895 109.892 C 303.687 114.645 313.711 121.309 321.978 129.873 C 330.255 138.438 336.657 148.648 341.189 160.504 C 345.657 172.284 347.887 185.206 347.887 199.259 C 347.887 216.463 344.811 232.382 338.663 247.017 C 332.515 261.587 324.281 274.539 313.963 285.883 C 303.643 297.223 291.784 306.63 278.391 314.097 C 264.932 321.562 250.913 326.644 236.344 329.357 L 236.344 381.397 C 236.344 384.766 235.244 387.105 233.049 388.422 C 230.929 389.818 228.373 390.508 225.364 390.508 C 223.025 390.508 220.719 390.178 218.446 389.521 C 216.11 388.861 214.024 388.016 212.188 386.996 C 210.292 385.975 208.752 384.799 207.579 383.483 C 206.339 382.088 205.714 380.627 205.714 379.092 Z" style=""/>
</svg>